<svg xmlns="http://www.w3.org/2000/svg" viewBox="0 0 1200 820" font-family="Helvetica, Arial, sans-serif">
<rect width="1200" height="820" fill="#ffffff"/>
<text x="600.0" y="40" text-anchor="middle" font-size="22" font-weight="800" fill="#1e3a8a">Wiring Lab Fire Detector</text>
<text x="600.0" y="66" text-anchor="middle" font-size="13" fill="#64748b">ESP32 + MQ-2 + Flame + DHT11 -&gt; Buzzer + Relay + LED</text>
<path d="M 240 197.0 C 343.5 197.0 366.5 240.0 470 240.0" fill="none" stroke="#dc2626" stroke-width="3.0" stroke-linecap="round"/>
<path d="M 240 223.0 C 343.5 223.0 366.5 412.0 470 412.0" fill="none" stroke="#2563eb" stroke-width="3.0" stroke-linecap="round"/>
<path d="M 240 249.0 C 343.5 249.0 366.5 670.0 470 670.0" fill="none" stroke="#334155" stroke-width="3.0" stroke-linecap="round"/>
<path d="M 240 377.0 C 343.5 377.0 366.5 326.0 470 326.0" fill="none" stroke="#ea580c" stroke-width="3.0" stroke-linecap="round"/>
<path d="M 240 403.0 C 343.5 403.0 366.5 498.0 470 498.0" fill="none" stroke="#16a34a" stroke-width="3.0" stroke-linecap="round"/>
<path d="M 240 429.0 C 343.5 429.0 366.5 670.0 470 670.0" fill="none" stroke="#334155" stroke-width="3.0" stroke-linecap="round"/>
<path d="M 240 557.0 C 343.5 557.0 366.5 326.0 470 326.0" fill="none" stroke="#ea580c" stroke-width="3.0" stroke-linecap="round"/>
<path d="M 240 583.0 C 343.5 583.0 366.5 584.0 470 584.0" fill="none" stroke="#9333ea" stroke-width="3.0" stroke-linecap="round"/>
<path d="M 240 609.0 C 343.5 609.0 366.5 670.0 470 670.0" fill="none" stroke="#334155" stroke-width="3.0" stroke-linecap="round"/>
<path d="M 960 217.0 C 856.5 217.0 833.5 240.0 730 240.0" fill="none" stroke="#dc2626" stroke-width="3.0" stroke-linecap="round"/>
<path d="M 960 243.0 C 856.5 243.0 833.5 347.5 730 347.5" fill="none" stroke="#0891b2" stroke-width="3.0" stroke-linecap="round"/>
<path d="M 960 269.0 C 856.5 269.0 833.5 670.0 730 670.0" fill="none" stroke="#334155" stroke-width="3.0" stroke-linecap="round"/>
<path d="M 960 407.0 C 856.5 407.0 833.5 455.0 730 455.0" fill="none" stroke="#16a34a" stroke-width="3.0" stroke-linecap="round"/>
<path d="M 960 433.0 C 856.5 433.0 833.5 670.0 730 670.0" fill="none" stroke="#334155" stroke-width="3.0" stroke-linecap="round"/>
<path d="M 960 567.0 C 856.5 567.0 833.5 562.5 730 562.5" fill="none" stroke="#9333ea" stroke-width="3.0" stroke-linecap="round"/>
<path d="M 960 593.0 C 856.5 593.0 833.5 670.0 730 670.0" fill="none" stroke="#334155" stroke-width="3.0" stroke-linecap="round"/>
<rect x="470" y="150" width="260" height="550" rx="14" fill="#0f172a" stroke="#1e3a8a" stroke-width="2"/>
<text x="600.0" y="184" text-anchor="middle" fill="#e2e8f0" font-size="17" font-weight="700">ESP32 DevKit V1</text>
<rect x="578.0" y="198" width="44" height="14" rx="3" fill="#1e3a8a"/>
<text x="600.0" y="209" text-anchor="middle" fill="#94a3b8" font-size="9">USB</text>
<rect x="463" y="231.0" width="14" height="18" rx="3" fill="#dc2626"/>
<text x="484" y="244.0" text-anchor="start" fill="#e2e8f0" font-size="12.5" font-weight="600">5V</text>
<rect x="463" y="317.0" width="14" height="18" rx="3" fill="#ea580c"/>
<text x="484" y="330.0" text-anchor="start" fill="#e2e8f0" font-size="12.5" font-weight="600">3V3</text>
<rect x="463" y="403.0" width="14" height="18" rx="3" fill="#2563eb"/>
<text x="484" y="416.0" text-anchor="start" fill="#e2e8f0" font-size="12.5" font-weight="600">GPIO34</text>
<rect x="463" y="489.0" width="14" height="18" rx="3" fill="#16a34a"/>
<text x="484" y="502.0" text-anchor="start" fill="#e2e8f0" font-size="12.5" font-weight="600">GPIO35</text>
<rect x="463" y="575.0" width="14" height="18" rx="3" fill="#9333ea"/>
<text x="484" y="588.0" text-anchor="start" fill="#e2e8f0" font-size="12.5" font-weight="600">GPIO4</text>
<rect x="463" y="661.0" width="14" height="18" rx="3" fill="#334155"/>
<text x="484" y="674.0" text-anchor="start" fill="#e2e8f0" font-size="12.5" font-weight="600">GND</text>
<rect x="723" y="231.0" width="14" height="18" rx="3" fill="#dc2626"/>
<text x="716" y="244.0" text-anchor="end" fill="#e2e8f0" font-size="12.5" font-weight="600">5V</text>
<rect x="723" y="338.5" width="14" height="18" rx="3" fill="#0891b2"/>
<text x="716" y="351.5" text-anchor="end" fill="#e2e8f0" font-size="12.5" font-weight="600">GPIO26</text>
<rect x="723" y="446.0" width="14" height="18" rx="3" fill="#16a34a"/>
<text x="716" y="459.0" text-anchor="end" fill="#e2e8f0" font-size="12.5" font-weight="600">GPIO27</text>
<rect x="723" y="553.5" width="14" height="18" rx="3" fill="#9333ea"/>
<text x="716" y="566.5" text-anchor="end" fill="#e2e8f0" font-size="12.5" font-weight="600">GPIO25</text>
<rect x="723" y="661.0" width="14" height="18" rx="3" fill="#334155"/>
<text x="716" y="674.0" text-anchor="end" fill="#e2e8f0" font-size="12.5" font-weight="600">GND</text>
<rect x="40" y="150" width="200" height="118" rx="8" fill="#ffffff" stroke="#94a3b8" stroke-width="1.5"/>
<rect x="40" y="150" width="200" height="30" rx="8" fill="#1e3a8a"/>
<rect x="40" y="172" width="200" height="8" fill="#1e3a8a"/>
<text x="140.0" y="170" text-anchor="middle" fill="#ffffff" font-size="14" font-weight="700">MQ-2 (gas/asap)</text>
<text x="52" y="201.0" text-anchor="start" font-size="12.5" fill="#1e293b">VCC -&gt; 5V</text>
<circle cx="240" cy="197.0" r="5" fill="#dc2626"/>
<text x="52" y="227.0" text-anchor="start" font-size="12.5" fill="#1e293b">AO -&gt; divider 10k</text>
<circle cx="240" cy="223.0" r="5" fill="#2563eb"/>
<text x="52" y="253.0" text-anchor="start" font-size="12.5" fill="#1e293b">GND</text>
<circle cx="240" cy="249.0" r="5" fill="#334155"/>
<rect x="40" y="330" width="200" height="118" rx="8" fill="#ffffff" stroke="#94a3b8" stroke-width="1.5"/>
<rect x="40" y="330" width="200" height="30" rx="8" fill="#1e3a8a"/>
<rect x="40" y="352" width="200" height="8" fill="#1e3a8a"/>
<text x="140.0" y="350" text-anchor="middle" fill="#ffffff" font-size="14" font-weight="700">Flame sensor</text>
<text x="52" y="381.0" text-anchor="start" font-size="12.5" fill="#1e293b">VCC -&gt; 3.3V</text>
<circle cx="240" cy="377.0" r="5" fill="#ea580c"/>
<text x="52" y="407.0" text-anchor="start" font-size="12.5" fill="#1e293b">DO (digital)</text>
<circle cx="240" cy="403.0" r="5" fill="#16a34a"/>
<text x="52" y="433.0" text-anchor="start" font-size="12.5" fill="#1e293b">GND</text>
<circle cx="240" cy="429.0" r="5" fill="#334155"/>
<rect x="40" y="510" width="200" height="118" rx="8" fill="#ffffff" stroke="#94a3b8" stroke-width="1.5"/>
<rect x="40" y="510" width="200" height="30" rx="8" fill="#1e3a8a"/>
<rect x="40" y="532" width="200" height="8" fill="#1e3a8a"/>
<text x="140.0" y="530" text-anchor="middle" fill="#ffffff" font-size="14" font-weight="700">DHT11</text>
<text x="52" y="561.0" text-anchor="start" font-size="12.5" fill="#1e293b">VCC -&gt; 3.3V</text>
<circle cx="240" cy="557.0" r="5" fill="#ea580c"/>
<text x="52" y="587.0" text-anchor="start" font-size="12.5" fill="#1e293b">DATA</text>
<circle cx="240" cy="583.0" r="5" fill="#9333ea"/>
<text x="52" y="613.0" text-anchor="start" font-size="12.5" fill="#1e293b">GND</text>
<circle cx="240" cy="609.0" r="5" fill="#334155"/>
<rect x="960" y="170" width="200" height="118" rx="8" fill="#ffffff" stroke="#94a3b8" stroke-width="1.5"/>
<rect x="960" y="170" width="200" height="30" rx="8" fill="#1e3a8a"/>
<rect x="960" y="192" width="200" height="8" fill="#1e3a8a"/>
<text x="1060.0" y="190" text-anchor="middle" fill="#ffffff" font-size="14" font-weight="700">Relay 5V (aktuator)</text>
<text x="1148" y="221.0" text-anchor="end" font-size="12.5" fill="#1e293b">VCC -&gt; 5V</text>
<circle cx="960" cy="217.0" r="5" fill="#dc2626"/>
<text x="1148" y="247.0" text-anchor="end" font-size="12.5" fill="#1e293b">IN</text>
<circle cx="960" cy="243.0" r="5" fill="#0891b2"/>
<text x="1148" y="273.0" text-anchor="end" font-size="12.5" fill="#1e293b">GND</text>
<circle cx="960" cy="269.0" r="5" fill="#334155"/>
<rect x="960" y="360" width="200" height="92" rx="8" fill="#ffffff" stroke="#94a3b8" stroke-width="1.5"/>
<rect x="960" y="360" width="200" height="30" rx="8" fill="#1e3a8a"/>
<rect x="960" y="382" width="200" height="8" fill="#1e3a8a"/>
<text x="1060.0" y="380" text-anchor="middle" fill="#ffffff" font-size="14" font-weight="700">Buzzer active</text>
<text x="1148" y="411.0" text-anchor="end" font-size="12.5" fill="#1e293b">(+)</text>
<circle cx="960" cy="407.0" r="5" fill="#16a34a"/>
<text x="1148" y="437.0" text-anchor="end" font-size="12.5" fill="#1e293b">(-)</text>
<circle cx="960" cy="433.0" r="5" fill="#334155"/>
<rect x="960" y="520" width="200" height="92" rx="8" fill="#ffffff" stroke="#94a3b8" stroke-width="1.5"/>
<rect x="960" y="520" width="200" height="30" rx="8" fill="#1e3a8a"/>
<rect x="960" y="542" width="200" height="8" fill="#1e3a8a"/>
<text x="1060.0" y="540" text-anchor="middle" fill="#ffffff" font-size="14" font-weight="700">LED + R220</text>
<text x="1148" y="571.0" text-anchor="end" font-size="12.5" fill="#1e293b">anoda -&gt; R220</text>
<circle cx="960" cy="567.0" r="5" fill="#9333ea"/>
<text x="1148" y="597.0" text-anchor="end" font-size="12.5" fill="#1e293b">katoda</text>
<circle cx="960" cy="593.0" r="5" fill="#334155"/>
<text x="40" y="718" font-size="12" font-weight="700" fill="#475569">KETERANGAN WARNA</text>
<line x1="40" y1="728" x2="66" y2="728" stroke="#dc2626" stroke-width="3.5" stroke-linecap="round"/>
<text x="74" y="732" font-size="12" fill="#334155">5V (power)</text>
<line x1="40" y1="750" x2="66" y2="750" stroke="#ea580c" stroke-width="3.5" stroke-linecap="round"/>
<text x="74" y="754" font-size="12" fill="#334155">3.3V (power)</text>
<line x1="40" y1="772" x2="66" y2="772" stroke="#334155" stroke-width="3.5" stroke-linecap="round"/>
<text x="74" y="776" font-size="12" fill="#334155">GND (ground bersama)</text>
<line x1="40" y1="794" x2="66" y2="794" stroke="#2563eb" stroke-width="3.5" stroke-linecap="round"/>
<text x="74" y="798" font-size="12" fill="#334155">sinyal / data</text>
<text x="1160" y="790" text-anchor="end" font-size="12" fill="#b45309">MQ-2 AO lewat pembagi tegangan 2x10k sebelum ke GPIO34 (pin ESP32 maks 3.3V).</text>
</svg>